<?xml version="1.0" encoding="UTF-8" standalone="no"?>
<!-- Created with Inkscape (http://www.inkscape.org/) -->

<svg
   xmlns:dc="http://purl.org/dc/elements/1.1/"
   xmlns:cc="http://creativecommons.org/ns#"
   xmlns:rdf="http://www.w3.org/1999/02/22-rdf-syntax-ns#"
   xmlns:svg="http://www.w3.org/2000/svg"
   xmlns="http://www.w3.org/2000/svg"
   xmlns:sodipodi="http://sodipodi.sourceforge.net/DTD/sodipodi-0.dtd"
   xmlns:inkscape="http://www.inkscape.org/namespaces/inkscape"
   width="210mm"
   height="297mm"
   viewBox="0 0 210 297"
   version="1.1"
   id="svg8"
   inkscape:version="0.92.0 r15299"
   sodipodi:docname="ss.svg">
  <defs
     id="defs2" />
  <sodipodi:namedview
     id="base"
     pagecolor="#ffffff"
     bordercolor="#666666"
     borderopacity="1.0"
     inkscape:pageopacity="0.0"
     inkscape:pageshadow="2"
     inkscape:zoom="0.35"
     inkscape:cx="-127.77759"
     inkscape:cy="607.38963"
     inkscape:document-units="mm"
     inkscape:current-layer="layer1"
     showgrid="false"
     inkscape:window-width="1920"
     inkscape:window-height="1018"
     inkscape:window-x="-8"
     inkscape:window-y="-8"
     inkscape:window-maximized="1" />
  <metadata
     id="metadata5">
    <rdf:RDF>
      <cc:Work
         rdf:about="">
        <dc:format>image/svg+xml</dc:format>
        <dc:type
           rdf:resource="http://purl.org/dc/dcmitype/StillImage" />
        <dc:title></dc:title>
      </cc:Work>
    </rdf:RDF>
  </metadata>
  <g
     inkscape:label="Layer 1"
     inkscape:groupmode="layer"
     id="layer1">
    <path
       style="stroke-width:0;stroke:#333;fill:#fff;fill-opacity:0.8"
       d="m 194.51773,266.88341 c -2.07866,-1.12291 -2.83186,-3.09907 -3.64839,-9.57256 -0.43983,-3.48689 -1.26089,-6.38038 -2.51606,-8.86684 -1.60435,-3.1782 -2.28343,-3.8702 -4.88847,-4.98148 -4.72883,-2.01727 -9.41425,-3.25547 -16.19009,-4.27856 -7.82299,-1.18117 -13.69934,-4.13518 -21.9713,-11.04485 -6.90614,-5.76878 -16.22279,-15.33103 -17.67683,-18.14283 -1.31084,-2.53487 -1.36763,-6.04902 -0.18319,-11.33549 1.07083,-4.77943 0.84837,-6.15151 -1.14456,-7.05955 -2.2475,-1.02403 -4.45857,0.83978 -6.71403,5.6596 -2.31049,4.93738 -2.8038,9.29302 -1.75311,15.47866 1.13312,6.67082 1.80181,8.35771 4.74572,11.97204 1.47562,1.81165 3.00117,3.88856 3.39013,4.61533 0.92652,1.73122 0.90755,7.82236 -0.0308,9.88173 -0.59488,1.3056 -0.52669,2.29001 0.35165,5.07641 1.26644,4.01759 0.91444,5.81038 -1.22765,6.25258 -0.84158,0.17372 -2.26815,0.47042 -3.17016,0.65931 -0.902,0.18891 -3.59168,2.02321 -5.97705,4.07623 -5.37067,4.62241 -8.09314,6.03736 -13.21552,6.86853 -5.517584,0.89528 -6.480652,0.83432 -8.148012,-0.51582 -1.340556,-1.08552 -1.394897,-1.36435 -0.710871,-3.6474 0.546193,-1.82304 2.395093,-4.08714 7.042483,-8.624 3.46603,-3.38357 6.474,-6.83781 6.6844,-7.67607 0.49553,-1.97438 -0.89051,-4.06317 -4.43591,-6.685 -5.773017,-4.26918 -7.692048,-10.77032 -8.311745,-28.15783 -0.32031,-8.98736 -0.197927,-11.96293 0.667677,-16.23339 1.361725,-6.71807 9.369958,-25.69448 13.848318,-32.81515 3.59097,-5.7097 6.65028,-11.48827 6.65028,-12.56137 0,-0.36049 -0.84892,-1.54377 -1.88648,-2.62947 -2.23188,-2.33546 -2.28284,-2.9439 -0.61424,-7.33405 0.69939,-1.8401 1.44181,-4.97405 1.64983,-6.9643 0.60694,-5.80694 -0.90565,-8.36799 -10.65919,-18.04765 -7.049591,-6.99619 -8.794501,-8.39916 -11.598289,-9.3254 -3.95346,-1.306039 -5.354792,-1.071559 -13.049209,2.18349 -9.238821,3.90841 -12.743102,4.63489 -22.323373,4.62794 -8.110588,-0.006 -8.788337,-0.10831 -15.197514,-2.29696 -6.471438,-2.20991 -18.871732,-7.544459 -20.488439,-8.814049 -0.432323,-0.3395 -0.786037,-1.27334 -0.786037,-2.07522 0,-1.82063 -1.023264,-2.509532 -2.234456,-1.50433 -1.543504,1.28102 -6.024237,0.31553 -7.727995,-1.665207 -1.2985769,-1.509692 -1.4250846,-2.116905 -1.056183,-5.069504 0.408178,-3.26695 0.378312,-3.354382 -1.145765,-3.354382 -0.9751423,0 -2.0510811,0.651686 -2.8550508,1.729275 -1.1666815,1.563794 -1.292049,1.605383 -1.3100655,0.434602 -0.054644,-3.551384 4.4302587,-4.879175 11.4492423,-3.389644 3.068312,0.651139 4.321331,1.289549 5.888435,3.000139 1.631961,1.781379 2.314257,2.111139 3.785969,1.829802 2.157828,-0.412492 3.606147,0.262775 6.524841,3.042158 3.561122,3.391141 6.068509,4.091519 16.103545,4.498111 l 9.013395,0.36521 5.205908,-2.998797 C 69.674293,87.434713 81.175602,79.3449 87.561618,73.961578 c 7.59898,-6.40584 7.022006,-7.510122 -4.374348,-8.372067 l -5.443454,-0.411704 -0.402323,-2.272319 c -0.221274,-1.249776 -0.560657,-3.493342 -0.754181,-4.985708 -0.273797,-2.111436 -0.685848,-2.840372 -1.857354,-3.285779 -1.826204,-0.694323 -1.900342,-1.312066 -0.278991,-2.324618 1.768512,-1.104454 2.124045,-4.174369 1.291239,-11.149437 l -0.732428,-6.134297 1.71324,-1.788233 c 3.242929,-3.38489 11.873861,-5.170138 17.960792,-3.715064 2.85008,0.681309 4.034093,1.461739 7.56005,4.983133 5.35122,5.34429 6.23181,7.810975 4.72425,13.233394 -1.23873,4.455453 -1.31465,6.398872 -0.29003,7.423494 1.1653,1.1653 2.16233,0.915661 4.48384,-1.122659 1.17595,-1.032485 4.36923,-2.942551 7.09619,-4.244583 4.81334,-2.298201 5.16012,-2.366888 11.87523,-2.351916 6.78724,0.01514 24.14174,1.64667 30.02152,2.822406 4.39456,0.878745 7.44979,3.221781 14.72495,11.292469 7.48499,8.303456 8.72273,10.478835 9.63928,16.941428 0.4397,3.100358 1.28859,5.75783 2.53532,7.93689 2.06292,3.605609 2.40489,6.615862 0.89397,7.869793 -0.71697,0.59504 -0.8751,1.43621 -0.58869,3.13147 0.34746,2.05663 0.16901,2.5052 -1.58324,3.979629 -5.45148,4.58711 -9.87453,-0.73567 -10.68547,-12.859027 -0.38941,-5.821973 -0.70079,-7.139363 -2.47339,-10.465129 -2.3947,-4.492892 -7.53652,-10.453868 -10.32345,-11.968067 -1.64729,-0.895013 -3.80068,-1.075525 -12.90945,-1.082156 -9.63257,-0.007 -11.01339,0.119835 -11.61388,1.066802 -0.99359,1.566879 1.14706,5.550524 5.80681,10.806227 5.70155,6.430725 16.67922,28.64613 20.23064,40.94052 3.61306,12.50781 4.36797,16.47488 4.99746,26.26218 0.70073,10.89486 0.0894,15.17058 -2.76156,19.31518 -1.36943,1.99079 -2.23793,4.14734 -2.51675,6.24923 -0.67603,5.09608 -2.72785,11.11653 -6.48432,19.02624 -2.93089,6.17136 -3.42049,7.69313 -3.07226,9.54932 1.00641,5.36465 14.59693,20.97135 20.98287,24.09569 3.50791,1.71626 3.80385,1.7521 13.22509,1.60088 l 9.63687,-0.15472 1.77579,1.7758 c 2.91015,2.91015 4.12087,9.56374 4.08464,22.44743 -0.0333,11.8366 -0.6126,14.92909 -3.26125,17.40927 -2.28397,2.13869 -3.89117,2.53399 -5.89709,1.45038 z"
       id="path3701"
       inkscape:connector-curvature="0" />
  </g>
</svg>
